<?xml version="1.0" standalone="no"?>
<!DOCTYPE svg PUBLIC "-//W3C//DTD SVG 20010904//EN"
 "http://www.w3.org/TR/2001/REC-SVG-20010904/DTD/svg10.dtd">
<svg version="1.0" xmlns="http://www.w3.org/2000/svg"
 width="500.000000pt" height="500.000000pt" viewBox="0 0 500.000000 500.000000"
 preserveAspectRatio="xMidYMid meet">
<metadata>
Created by potrace 1.14, written by Peter Selinger 2001-2017
</metadata>
<g transform="translate(0.000000,500.000000) scale(0.100000,-0.100000)"
fill="#000000" stroke="none">
<path d="M2540 3723 c-25 -2 -112 -10 -195 -18 -82 -8 -212 -15 -287 -15 -86
0 -138 -4 -138 -10 0 -5 8 -10 18 -10 9 0 35 -9 58 -19 83 -38 104 -140 104
-510 l0 -224 -252 386 -253 386 -167 1 c-100 0 -168 -4 -168 -10 0 -5 16 -12
36 -16 52 -10 91 -47 110 -107 45 -145 45 -1543 0 -1667 -23 -61 -61 -99 -108
-106 -95 -16 -17 -24 222 -24 167 0 260 4 260 10 0 6 -8 10 -18 10 -10 0 -41
12 -70 26 -93 46 -163 173 -202 365 -30 145 -40 376 -40 919 0 415 2 482 14
470 8 -8 154 -229 325 -490 l311 -474 0 -256 c0 -443 -24 -538 -142 -556 -75
-12 -36 -24 80 -24 64 0 212 -9 327 -21 324 -32 466 -16 651 76 205 100 361
306 428 565 126 482 -18 986 -345 1205 -150 101 -365 154 -559 138z m103 -30
c-24 -2 -62 -2 -85 0 -24 2 -5 4 42 4 47 0 66 -2 43 -4z m-196 -54 c107 -66
185 -247 213 -495 7 -64 10 -275 8 -594 l-3 -494 -203 309 -202 309 2 485 3
485 40 13 c48 15 99 8 142 -18z m462 -14 c260 -137 411 -466 411 -899 0 -248
-50 -470 -143 -636 -54 -97 -180 -224 -264 -268 -61 -32 -201 -74 -215 -65
-11 6 -9 1469 1 1623 5 69 14 145 21 169 14 52 67 111 100 111 12 0 52 -16 89
-35z m-445 -1583 c102 -156 186 -286 186 -289 0 -13 -211 7 -299 27 l-91 22 0
271 c0 161 4 267 9 262 5 -6 93 -137 195 -293z"/>
</g>
</svg>
